<svg version="1.1" xmlns="http://www.w3.org/2000/svg" viewBox="-200.70399780273436 -1071.104052734375 7939.584814453125 2456.3200927734374"><desc>Created with Snap</desc><defs></defs><g><g><g transform="matrix(1.024,0,0,-1.024,0,0)"><path d="M104 0L104 723L533 723L533 630L201 630L201 399L492 399L492 307L201 307L201 0L104 0ZM693 0L693 723L790 723L790 0L693 0ZM945 630L945 723L1425 723L1425 630L1231 630L1231 0L1134 0L1134 630L945 630ZM1579 0L1579 723L2008 723L2008 630L1676 630L1676 399L1967 399L1967 307L1676 307L1676 0L1579 0ZM2123 361Q2123 436 2151 502Q2180 569 2231 620Q2282 672 2348 701Q2415 731 2492 731Q2568 731 2634 701Q2701 672 2752 620Q2804 569 2833 502Q2862 436 2862 361Q2862 284 2833 217Q2804 150 2752 99Q2701 49 2634 20Q2568 -8 2492 -8Q2415 -8 2348 20Q2282 48 2231 98Q2180 148 2151 215Q2123 282 2123 361ZM2223 360Q2223 303 2244 253Q2265 204 2302 166Q2339 128 2388 106Q2437 85 2494 85Q2550 85 2599 106Q2648 128 2684 166Q2720 204 2741 253Q2762 303 2762 361Q2762 418 2741 468Q2720 519 2683 557Q2646 595 2597 616Q2548 638 2492 638Q2435 638 2386 616Q2337 594 2300 556Q2263 518 2243 467Q2223 417 2223 360ZM3025 723L3217 723Q3272 723 3318 708Q3365 694 3399 665Q3434 637 3453 595Q3473 554 3473 499Q3473 456 3460 415Q3448 374 3419 340Q3390 307 3343 286Q3297 266 3229 266L3122 266L3122 0L3025 0L3025 723ZM3122 359L3227 359Q3270 359 3298 372Q3327 385 3343 405Q3359 426 3366 450Q3373 474 3373 495Q3373 517 3365 540Q3358 564 3341 584Q3325 604 3298 617Q3272 630 3234 630L3122 630L3122 359ZM3231 301L3346 304L3535 0L3423 0L3231 301ZM3778 0L3684 0L3684 746L3685 746L4064 208L4023 216L4401 746L4403 746L4403 0L4307 0L4307 526L4313 477L4040 91L4038 91L3761 477L3778 522L3778 0Z" fill="#08240f" style=""></path></g></g><g transform="matrix(0.75,0,0,0.75,87.296,914.432)"><g transform="matrix(1.024,0,0,-1.024,0,0)"><path d="M270 701Q339 701 388 681Q437 662 483 621L431 563Q392 594 354 608Q317 623 274 623Q220 623 185 598Q150 573 150 525Q150 495 162 474Q174 454 206 437Q239 420 301 401Q366 381 409 358Q452 335 478 294Q505 254 505 192Q505 132 475 86Q446 40 390 14Q335 -12 259 -12Q116 -12 25 77L77 135Q119 101 162 83Q205 66 258 66Q322 66 364 97Q406 129 406 189Q406 223 393 245Q380 268 348 286Q317 304 257 322Q151 354 102 399Q53 444 53 521Q53 573 80 614Q108 655 157 678Q207 701 270 701ZM888 539Q960 539 1000 496Q1041 453 1041 378L1041 0L949 0L949 365Q949 421 927 444Q906 467 865 467Q824 467 792 443Q760 419 732 375L732 0L640 0L640 738L732 748L732 454Q794 539 888 539ZM1581 123Q1581 91 1592 75Q1603 60 1625 52L1604 -12Q1563 -7 1538 11Q1513 29 1501 67Q1448 -12 1344 -12Q1266 -12 1221 32Q1176 76 1176 147Q1176 231 1236 276Q1297 321 1408 321L1489 321L1489 360Q1489 416 1462 440Q1435 464 1379 464Q1321 464 1237 436L1214 503Q1312 539 1396 539Q1489 539 1535 493Q1581 448 1581 364L1581 123ZM1365 57Q1444 57 1489 139L1489 260L1420 260Q1274 260 1274 152Q1274 105 1297 81Q1320 57 1365 57ZM2012 539Q2113 539 2160 467Q2207 395 2207 264Q2207 140 2153 64Q2099 -12 2000 -12Q1912 -12 1862 48L1862 -202L1770 -213L1770 527L1849 527L1856 456Q1885 496 1926 517Q1967 539 2012 539ZM1978 63Q2108 63 2108 264Q2108 466 1989 466Q1950 466 1918 443Q1886 420 1862 384L1862 127Q1882 96 1912 79Q1942 63 1978 63ZM2762 279Q2762 256 2760 232L2424 232Q2430 145 2468 104Q2506 63 2566 63Q2604 63 2636 74Q2668 85 2703 109L2743 54Q2659 -12 2559 -12Q2449 -12 2387 60Q2326 132 2326 258Q2326 340 2352 403Q2379 467 2428 503Q2478 539 2545 539Q2650 539 2706 470Q2762 401 2762 279ZM2671 300L2671 306Q2671 384 2640 425Q2609 466 2547 466Q2434 466 2424 300L2671 300ZM3525 689L3624 689L3402 265L3402 0L3306 0L3306 264L3084 689L3189 689L3357 348L3525 689ZM3922 539Q4033 539 4094 465Q4156 391 4156 264Q4156 182 4128 119Q4100 57 4047 22Q3994 -12 3921 -12Q3810 -12 3748 62Q3686 136 3686 263Q3686 345 3714 407Q3742 470 3795 504Q3848 539 3922 539ZM3922 465Q3785 465 3785 263Q3785 62 3921 62Q4057 62 4057 264Q4057 465 3922 465ZM4700 527L4700 0L4621 0L4614 82Q4584 33 4545 10Q4506 -12 4450 -12Q4381 -12 4342 30Q4303 72 4303 149L4303 527L4395 527L4395 159Q4395 105 4414 82Q4433 60 4476 60Q4553 60 4608 151L4608 527L4700 527ZM5119 539Q5147 539 5171 533L5154 443Q5130 449 5108 449Q5059 449 5029 413Q4999 377 4982 301L4982 0L4890 0L4890 527L4969 527L4978 420Q4999 479 5035 509Q5071 539 5119 539ZM5727 689Q5855 689 5925 635Q5995 582 5995 476Q5995 363 5922 308Q5849 253 5728 253L5641 253L5641 0L5546 0L5546 689L5727 689ZM5724 328Q5807 328 5850 360Q5894 392 5894 475Q5894 549 5850 582Q5807 615 5726 615L5641 615L5641 328L5724 328ZM6320 539Q6431 539 6492 465Q6554 391 6554 264Q6554 182 6526 119Q6498 57 6445 22Q6392 -12 6319 -12Q6208 -12 6146 62Q6084 136 6084 263Q6084 345 6112 407Q6140 470 6193 504Q6246 539 6320 539ZM6320 465Q6183 465 6183 263Q6183 62 6319 62Q6455 62 6455 264Q6455 465 6320 465ZM6937 85L6972 24Q6920 -12 6854 -12Q6787 -12 6749 26Q6712 65 6712 138L6712 456L6620 456L6620 527L6712 527L6712 646L6804 657L6804 527L6929 527L6919 456L6804 456L6804 142Q6804 101 6818 82Q6833 64 6867 64Q6898 64 6937 85ZM7465 279Q7465 256 7463 232L7127 232Q7133 145 7171 104Q7209 63 7269 63Q7307 63 7339 74Q7371 85 7406 109L7446 54Q7362 -12 7262 -12Q7152 -12 7090 60Q7029 132 7029 258Q7029 340 7055 403Q7082 467 7131 503Q7181 539 7248 539Q7353 539 7409 470Q7465 401 7465 279ZM7374 300L7374 306Q7374 384 7343 425Q7312 466 7250 466Q7137 466 7127 300L7374 300ZM7860 539Q7932 539 7972 496Q8013 453 8013 378L8013 0L7921 0L7921 365Q7921 421 7900 444Q7879 467 7838 467Q7796 467 7764 443Q7732 419 7704 374L7704 0L7612 0L7612 527L7691 527L7699 449Q7727 491 7768 515Q7810 539 7860 539ZM8429 85L8464 24Q8412 -12 8346 -12Q8279 -12 8241 26Q8204 65 8204 138L8204 456L8112 456L8112 527L8204 527L8204 646L8296 657L8296 527L8421 527L8411 456L8296 456L8296 142Q8296 101 8310 82Q8325 64 8359 64Q8390 64 8429 85ZM8559 527L8651 527L8651 0L8559 0L8559 527ZM8604 780Q8633 780 8651 762Q8669 744 8669 717Q8669 690 8651 672Q8633 655 8604 655Q8576 655 8558 672Q8540 690 8540 717Q8540 744 8558 762Q8576 780 8604 780ZM9196 123Q9196 91 9207 75Q9218 60 9240 52L9219 -12Q9178 -7 9153 11Q9128 29 9116 67Q9063 -12 8959 -12Q8881 -12 8836 32Q8791 76 8791 147Q8791 231 8851 276Q8912 321 9023 321L9104 321L9104 360Q9104 416 9077 440Q9050 464 8994 464Q8936 464 8852 436L8829 503Q8927 539 9011 539Q9104 539 9150 493Q9196 448 9196 364L9196 123ZM8980 57Q9059 57 9104 139L9104 260L9035 260Q8889 260 8889 152Q8889 105 8912 81Q8935 57 8980 57ZM9490 -12Q9439 -12 9409 18Q9380 49 9380 104L9380 739L9472 750L9472 106Q9472 84 9479 74Q9487 64 9505 64Q9524 64 9539 70L9563 6Q9530 -12 9490 -12Z" fill="#08240f" style=""></path></g></g></g></svg>