<svg version="1.1" xmlns="http://www.w3.org/2000/svg" viewBox="-200.70399780273436 -1071.104052734375 7939.584814453125 2456.3200927734374"><desc>Created with Snap</desc><defs></defs><g><g><g transform="matrix(1.024,0,0,-1.024,0,0)"><path d="M104 0L104 723L533 723L533 630L201 630L201 399L492 399L492 307L201 307L201 0L104 0ZM693 0L693 723L790 723L790 0L693 0ZM945 630L945 723L1425 723L1425 630L1231 630L1231 0L1134 0L1134 630L945 630ZM1579 0L1579 723L2008 723L2008 630L1676 630L1676 399L1967 399L1967 307L1676 307L1676 0L1579 0ZM2123 361Q2123 436 2151 502Q2180 569 2231 620Q2282 672 2348 701Q2415 731 2492 731Q2568 731 2634 701Q2701 672 2752 620Q2804 569 2833 502Q2862 436 2862 361Q2862 284 2833 217Q2804 150 2752 99Q2701 49 2634 20Q2568 -8 2492 -8Q2415 -8 2348 20Q2282 48 2231 98Q2180 148 2151 215Q2123 282 2123 361ZM2223 360Q2223 303 2244 253Q2265 204 2302 166Q2339 128 2388 106Q2437 85 2494 85Q2550 85 2599 106Q2648 128 2684 166Q2720 204 2741 253Q2762 303 2762 361Q2762 418 2741 468Q2720 519 2683 557Q2646 595 2597 616Q2548 638 2492 638Q2435 638 2386 616Q2337 594 2300 556Q2263 518 2243 467Q2223 417 2223 360ZM3025 723L3217 723Q3272 723 3318 708Q3365 694 3399 665Q3434 637 3453 595Q3473 554 3473 499Q3473 456 3460 415Q3448 374 3419 340Q3390 307 3343 286Q3297 266 3229 266L3122 266L3122 0L3025 0L3025 723ZM3122 359L3227 359Q3270 359 3298 372Q3327 385 3343 405Q3359 426 3366 450Q3373 474 3373 495Q3373 517 3365 540Q3358 564 3341 584Q3325 604 3298 617Q3272 630 3234 630L3122 630L3122 359ZM3231 301L3346 304L3535 0L3423 0L3231 301ZM3778 0L3684 0L3684 746L3685 746L4064 208L4023 216L4401 746L4403 746L4403 0L4307 0L4307 526L4313 477L4040 91L4038 91L3761 477L3778 522L3778 0Z" fill="#CCF7CD" style=""></path></g></g></g></svg>